# xmcd CD Database Entry
#
# Track frame offsets:
# 150
# 15008
# 31640
# 49545
# 64933
# 81915
# 96815
# 113838
# 131094
# 149801
# 170938
# 182383
# 201110
# 212949
# 231206
# 251454
# 269023
# 285273
# 297575
# 312567
# 330723
#
# Disc length: 4636 seconds
#
# Revision: 1
# Processed by: cddbd v1.4PL0 Copyright (c) Steve Scherf et al.
# Submitted via: tcd 2.0b
#
DISCID=3d121a15
DTITLE=Hooverphonic - Nirvana Blue
DYEAR=2003
DGENRE=
TTITLE0=One
TTITLE1=Mad about you
TTITLE2=Nirvana blue
TTITLE3=Sad song
TTITLE4=Human interest
TTITLE5=Revolver
TTITLE6=Opium
TTITLE7=The world is mine
TTITLE8=Jackie's delirium
TTITLE9=2wicky
TTITLE10=Day after day
TTITLE11=Someone
TTITLE12=The kiss
TTITLE13=Innervoice
TTITLE14=Wardrope
TTITLE15=Sometimes
TTITLE16=Nr
TTITLE17=The last supper
TTITLE18=Sarangi
TTITLE19=Shampoo
TTITLE20=Cinderella
EXTD=YEAR: 2003
EXTT0=
EXTT1=
EXTT2=
EXTT3=
EXTT4=
EXTT5=
EXTT6=
EXTT7=
EXTT8=
EXTT9=
EXTT10=
EXTT11=
EXTT12=
EXTT13=
EXTT14=
EXTT15=
EXTT16=
EXTT17=
EXTT18=
EXTT19=
EXTT20=
PLAYORDER=
